<svg width="285" height="233" viewBox="0 0 285 233" fill="none" xmlns="http://www.w3.org/2000/svg">
<path d="M244.444 164.766H32.0325V227.734H244.444V164.766Z" fill="#F0F0F0"/>
<path d="M150.622 177.779H125.855V227.734H150.622V177.779Z" fill="#CACACA"/>
<path d="M232.06 90.4639H44.416V148.394H232.06V90.4639Z" fill="#F0F0F0"/>
<path d="M251.085 94.0322H25.3924C25.0156 94.0322 24.6474 93.9195 24.3352 93.7086C24.0229 93.4977 23.7809 93.1983 23.6402 92.8487C23.4994 92.4992 23.4664 92.1156 23.5454 91.7472C23.6244 91.3788 23.8117 91.0424 24.0834 90.7813L85.7652 31.4922V5.66712C85.7658 5.16629 85.965 4.68613 86.3191 4.33199C86.6733 3.97785 87.1534 3.77865 87.6542 3.77808H99.828C100.329 3.77863 100.809 3.97783 101.163 4.33198C101.517 4.68612 101.717 5.16629 101.717 5.66712V16.1593L106.376 11.6811C114 4.35279 124.115 0.181616 134.688 0.0057924C145.262 -0.170031 155.51 3.66252 163.373 10.7333L252.348 90.7382C252.632 90.9937 252.832 91.3295 252.921 91.701C253.011 92.0726 252.985 92.4625 252.848 92.8193C252.712 93.1762 252.47 93.4831 252.155 93.6996C251.84 93.9162 251.467 94.0321 251.085 94.0322Z" fill="#CACACA"/>
<path d="M93.951 105.156C95.5221 105.156 97.0778 105.466 98.5294 106.067C99.9809 106.668 101.3 107.549 102.411 108.66C103.522 109.771 104.403 111.09 105.004 112.542C105.605 113.993 105.915 115.549 105.915 117.12V133.282H81.9871V117.12C81.9871 115.549 82.2965 113.993 82.8978 112.542C83.499 111.09 84.3803 109.771 85.4912 108.66C86.6022 107.549 87.921 106.668 89.3726 106.067C90.8241 105.466 92.3798 105.156 93.951 105.156Z" fill="white"/>
<path d="M138.238 105.366C141.411 105.366 144.454 106.627 146.698 108.87C148.942 111.114 150.202 114.157 150.202 117.33V133.492H126.274V117.33C126.274 114.157 127.535 111.114 129.779 108.87C132.022 106.627 135.065 105.366 138.238 105.366Z" fill="white"/>
<path d="M182.526 105.576C185.699 105.576 188.742 106.837 190.986 109.081C193.229 111.324 194.49 114.367 194.49 117.54V133.702H170.562V117.54C170.562 114.367 171.822 111.324 174.066 109.081C176.31 106.837 179.353 105.576 182.526 105.576Z" fill="white"/>
<path d="M200.157 177.15C203.33 177.15 206.373 178.41 208.617 180.654C210.86 182.897 212.121 185.941 212.121 189.114V205.275H188.193V189.114C188.193 185.941 189.453 182.897 191.697 180.654C193.941 178.41 196.984 177.15 200.157 177.15Z" fill="white"/>
<path d="M81.7771 177.15C84.9502 177.15 87.9932 178.41 90.2369 180.654C92.4806 182.897 93.7411 185.941 93.7411 189.114V205.275H69.8132V189.114C69.8132 187.542 70.1227 185.987 70.7239 184.535C71.3252 183.084 72.2064 181.765 73.3174 180.654C74.4283 179.543 75.7472 178.662 77.1988 178.06C78.6503 177.459 80.206 177.15 81.7771 177.15Z" fill="white"/>
<path d="M275.477 165.749L235.631 148.118C235.417 148.024 235.185 147.975 234.951 147.975H45.0516C44.8348 147.975 44.6201 148.017 44.4192 148.098L1.04679 165.729C0.686031 165.876 0.387468 166.143 0.202201 166.486C0.016934 166.828 -0.0435178 167.225 0.031196 167.607C0.10591 167.989 0.311141 168.333 0.611762 168.581C0.912383 168.829 1.2897 168.964 1.67913 168.964H12.9322V226.894H11.6728V232.771H264.804V226.894H262.705V168.964H274.797C275.182 168.964 275.556 168.832 275.855 168.589C276.154 168.347 276.361 168.009 276.44 167.632C276.52 167.255 276.468 166.863 276.292 166.52C276.117 166.177 275.829 165.905 275.477 165.749ZM259.347 226.894H16.2905V168.964H259.347V226.894Z" fill="#CACACA"/>
<path d="M108.853 130.973H78.209V136.011H108.853V130.973Z" fill="#CACACA"/>
<path d="M153.77 130.973H123.126V136.011H153.77V130.973Z" fill="#CACACA"/>
<path d="M198.688 130.973H168.043V136.011H198.688V130.973Z" fill="#CACACA"/>
<path d="M215.479 203.596H184.835V208.634H215.479V203.596Z" fill="#CACACA"/>
<path d="M96.6796 203.596H66.0352V208.634H96.6796V203.596Z" fill="#CACACA"/>
<path d="M155.569 139.173H123.707V113.685C124.295 102.038 134.25 101.097 143.605 101.722C145.176 101.722 146.732 102.031 148.183 102.632C149.635 103.234 150.953 104.115 152.064 105.226C153.175 106.337 154.057 107.656 154.658 109.107C155.259 110.559 155.569 112.114 155.569 113.685V139.173Z" fill="white"/>
<path fill-rule="evenodd" clip-rule="evenodd" d="M247.173 96.9011C251.011 96.9011 254.123 93.7889 254.123 89.9503C254.123 86.1117 251.011 83 247.173 83C243.334 83 240.222 86.1117 240.222 89.9503C240.222 93.7889 243.334 96.9011 247.173 96.9011ZM284.139 152.365V115.296C284.139 112.747 282.054 110.662 279.506 110.662H271.142L255.133 94.6531C254.345 95.9971 253.21 97.1323 251.866 97.9203L264.609 110.663H229.717L242.46 97.9203C241.092 97.1324 239.957 95.9971 239.216 94.63L223.183 110.663H214.634C212.085 110.663 210 112.748 210 115.297V152.366C210 154.915 212.085 157 214.634 157H279.506C282.055 156.999 284.139 154.914 284.139 152.365Z" fill="#3F3D56"/>
<path d="M274.875 116.312H219.106C217.712 116.312 216.571 117.596 216.571 119.166V147.707C216.571 149.277 217.712 150.561 219.106 150.561H274.875C276.269 150.561 277.409 149.277 277.409 147.707V119.166C277.41 117.596 276.269 116.312 274.875 116.312Z" fill="white"/>
<path d="M277.311 114.755H216.811C215.299 114.755 214.061 116.18 214.061 117.921V149.589C214.061 151.33 215.299 152.755 216.811 152.755H277.311C278.824 152.755 280.061 151.33 280.061 149.589V117.921C280.062 116.18 278.824 114.755 277.311 114.755ZM233.668 138.124C233.311 138.726 232.76 139.233 232.045 139.581C231.358 139.898 230.533 140.088 229.543 140.088C228.718 140.088 227.92 139.961 227.151 139.708C226.353 139.423 225.72 139.075 225.225 138.663C225.06 138.536 225.005 138.314 225.088 138.093L225.885 136.13C225.94 136.003 226.023 135.908 226.16 135.877C226.271 135.814 226.408 135.845 226.518 135.94C226.903 136.257 227.37 136.541 227.92 136.731C228.47 136.921 229.02 137.017 229.57 137.017C230.285 137.017 230.642 136.89 230.808 136.764C231.055 136.605 231.083 136.415 231.083 136.288C231.083 136.161 231.055 136.067 230.945 135.971C230.807 135.844 230.615 135.718 230.368 135.623C230.093 135.527 229.708 135.401 229.24 135.274C228.443 135.084 227.811 134.863 227.316 134.641C226.766 134.42 226.271 134.04 225.885 133.533C225.472 132.994 225.253 132.266 225.253 131.411C225.253 130.651 225.445 129.986 225.802 129.353C226.16 128.751 226.71 128.276 227.398 127.928C228.085 127.579 228.938 127.421 229.9 127.421C230.56 127.421 231.248 127.516 231.88 127.674C232.513 127.864 233.118 128.149 233.585 128.497C233.778 128.592 233.833 128.846 233.75 129.067L233.035 131.062C233.008 131.189 232.898 131.283 232.788 131.315C232.678 131.347 232.568 131.347 232.458 131.283C231.606 130.745 230.726 130.46 229.874 130.46C229.324 130.46 228.911 130.555 228.691 130.745C228.471 130.872 228.388 131.062 228.388 131.283C228.388 131.442 228.443 131.568 228.691 131.727C229.021 131.885 229.544 132.075 230.258 132.233C231.056 132.455 231.661 132.677 232.184 132.867C232.733 133.12 233.201 133.468 233.586 133.975C233.999 134.514 234.219 135.21 234.219 136.097C234.218 136.826 234.025 137.523 233.668 138.124ZM246.181 136.984C245.658 137.934 244.943 138.726 244.063 139.264C243.183 139.803 242.166 140.088 241.065 140.088C239.965 140.088 238.948 139.803 238.04 139.264C237.161 138.726 236.445 137.966 235.923 136.984C235.428 136.034 235.152 134.926 235.152 133.754C235.152 132.551 235.428 131.474 235.923 130.493C236.445 129.542 237.16 128.782 238.04 128.212C239.855 127.136 242.276 127.136 244.063 128.212C244.971 128.783 245.686 129.543 246.181 130.493C246.703 131.443 246.95 132.551 246.95 133.754C246.95 134.926 246.703 136.034 246.181 136.984ZM256.878 139.423C256.878 139.676 256.686 139.866 256.438 139.866H249.095C248.876 139.866 248.682 139.676 248.682 139.423V128.086C248.682 127.801 248.875 127.611 249.095 127.611H251.433C251.653 127.611 251.846 127.801 251.846 128.086V136.794H256.438C256.686 136.794 256.878 137.016 256.878 137.269L256.878 139.423ZM268.318 136.953C267.796 137.903 267.108 138.631 266.2 139.138C265.293 139.612 264.276 139.866 263.121 139.866H258.556C258.336 139.866 258.143 139.676 258.143 139.423V128.086C258.143 127.801 258.335 127.611 258.556 127.611H263.121C264.276 127.611 265.293 127.864 266.2 128.371C267.108 128.878 267.796 129.606 268.318 130.524C268.813 131.442 269.061 132.519 269.061 133.754C269.061 134.958 268.813 136.034 268.318 136.953Z" fill="#8C98E7"/>
<path d="M242.469 130.969C242.056 130.716 241.589 130.589 241.066 130.589C240.544 130.589 240.076 130.716 239.664 131C239.251 131.253 238.921 131.633 238.701 132.109C238.454 132.584 238.344 133.122 238.344 133.756C238.344 134.357 238.454 134.927 238.701 135.403C238.921 135.877 239.251 136.226 239.664 136.511C240.489 137.05 241.617 137.05 242.469 136.511C242.882 136.227 243.184 135.878 243.432 135.403C243.652 134.927 243.789 134.357 243.789 133.756C243.789 133.123 243.652 132.584 243.432 132.109C243.183 131.633 242.881 131.253 242.469 130.969Z" fill="#8C98E7"/>
<path d="M263.012 130.715H261.307V136.795H263.012C263.92 136.795 264.608 136.509 265.13 135.972C265.625 135.433 265.9 134.705 265.9 133.755C265.9 132.805 265.624 132.076 265.13 131.506C264.607 130.969 263.92 130.715 263.012 130.715Z" fill="#8C98E7"/>
</svg>