<svg width="277" height="233" viewBox="0 0 277 233" fill="none" xmlns="http://www.w3.org/2000/svg">
<path d="M244.444 164.766H32.0325V227.734H244.444V164.766Z" fill="#F0F0F0"/>
<path d="M150.622 177.779H125.855V227.734H150.622V177.779Z" fill="#CACACA"/>
<path d="M232.061 90.4639H44.4161V148.394H232.061V90.4639Z" fill="#F0F0F0"/>
<path d="M251.084 94.0322H25.3923C25.0155 94.0322 24.6473 93.9195 24.3351 93.7086C24.0228 93.4977 23.7808 93.1983 23.64 92.8487C23.4993 92.4992 23.4663 92.1156 23.5453 91.7472C23.6242 91.3788 23.8116 91.0424 24.0832 90.7813L85.7651 31.4922V5.66712C85.7657 5.16629 85.9649 4.68613 86.319 4.33199C86.6731 3.97785 87.1533 3.77865 87.6541 3.77808H99.8279C100.329 3.77863 100.809 3.97783 101.163 4.33198C101.517 4.68612 101.716 5.16629 101.717 5.66712V16.1593L106.376 11.6811C114 4.35279 124.115 0.181616 134.688 0.0057924C145.262 -0.170031 155.51 3.66252 163.373 10.7333L252.347 90.7382C252.632 90.9937 252.832 91.3295 252.921 91.701C253.01 92.0726 252.985 92.4625 252.848 92.8193C252.711 93.1762 252.47 93.4831 252.155 93.6996C251.84 93.9162 251.467 94.0321 251.084 94.0322Z" fill="#CACACA"/>
<path d="M93.951 105.156C95.5221 105.156 97.0778 105.466 98.5294 106.067C99.9809 106.668 101.3 107.549 102.411 108.66C103.522 109.771 104.403 111.09 105.004 112.542C105.605 113.993 105.915 115.549 105.915 117.12V133.282H81.9871V117.12C81.9871 115.549 82.2965 113.993 82.8978 112.542C83.499 111.09 84.3803 109.771 85.4912 108.66C86.6022 107.549 87.921 106.668 89.3726 106.067C90.8241 105.466 92.3798 105.156 93.951 105.156Z" fill="white"/>
<path d="M138.238 105.366C141.411 105.366 144.455 106.627 146.698 108.87C148.942 111.114 150.202 114.157 150.202 117.33V133.492H126.275V117.33C126.275 114.157 127.535 111.114 129.779 108.87C132.022 106.627 135.065 105.366 138.238 105.366Z" fill="white"/>
<path d="M182.526 105.576C185.699 105.576 188.742 106.837 190.986 109.081C193.229 111.324 194.49 114.367 194.49 117.54V133.702H170.562V117.54C170.562 114.367 171.822 111.324 174.066 109.081C176.31 106.837 179.353 105.576 182.526 105.576Z" fill="white"/>
<path d="M200.157 177.15C203.33 177.15 206.373 178.41 208.617 180.654C210.86 182.897 212.121 185.941 212.121 189.114V205.275H188.193V189.114C188.193 185.941 189.453 182.897 191.697 180.654C193.941 178.41 196.984 177.15 200.157 177.15Z" fill="white"/>
<path d="M81.7771 177.15C84.9502 177.15 87.9932 178.41 90.2369 180.654C92.4806 182.897 93.7411 185.941 93.7411 189.114V205.275H69.8132V189.114C69.8132 187.542 70.1227 185.987 70.7239 184.535C71.3252 183.084 72.2064 181.765 73.3174 180.654C74.4283 179.543 75.7472 178.662 77.1988 178.06C78.6503 177.459 80.206 177.15 81.7771 177.15Z" fill="white"/>
<path d="M275.477 165.749L235.631 148.118C235.417 148.024 235.185 147.975 234.951 147.975H45.0516C44.8348 147.975 44.6201 148.017 44.4192 148.098L1.04679 165.729C0.686031 165.876 0.387468 166.143 0.202201 166.486C0.016934 166.828 -0.0435178 167.225 0.031196 167.607C0.10591 167.989 0.311141 168.333 0.611762 168.581C0.912383 168.829 1.2897 168.964 1.67913 168.964H12.9322V226.894H11.6728V232.771H264.804V226.894H262.705V168.964H274.797C275.182 168.964 275.556 168.832 275.855 168.589C276.154 168.347 276.361 168.009 276.44 167.632C276.52 167.255 276.468 166.863 276.292 166.52C276.117 166.177 275.829 165.905 275.477 165.749ZM259.347 226.894H16.2905V168.964H259.347V226.894Z" fill="#CACACA"/>
<path d="M108.853 130.973H78.209V136.011H108.853V130.973Z" fill="#CACACA"/>
<path d="M153.77 130.973H123.126V136.011H153.77V130.973Z" fill="#CACACA"/>
<path d="M198.688 130.973H168.043V136.011H198.688V130.973Z" fill="#CACACA"/>
<path d="M215.479 203.596H184.835V208.634H215.479V203.596Z" fill="#CACACA"/>
<path d="M96.6796 203.596H66.0352V208.634H96.6796V203.596Z" fill="#CACACA"/>
<path d="M207.477 89.6004C207.477 89.9297 207.471 90.264 207.466 90.5932C207.461 90.9893 207.451 91.3803 207.435 91.7763C207.42 92.121 207.405 92.4605 207.384 92.8C207.322 93.9369 207.225 95.0686 207.091 96.2055C207.06 96.4935 207.024 96.7765 206.983 97.0645C206.952 97.2857 206.921 97.5121 206.885 97.7384C206.849 97.9905 206.813 98.2425 206.772 98.4946C206.69 99.0296 206.597 99.5646 206.494 100.1C206.443 100.367 206.391 100.635 206.335 100.902C206.227 101.432 206.108 101.967 205.985 102.497C205.975 102.538 205.964 102.584 205.954 102.625C205.892 102.888 205.831 103.145 205.764 103.407C205.743 103.484 205.728 103.556 205.702 103.634C205.656 103.829 205.604 104.025 205.553 104.22C205.481 104.493 205.409 104.76 205.332 105.033C205.208 105.455 205.085 105.871 204.956 106.293C204.94 106.337 204.926 106.382 204.915 106.427C204.668 107.224 204.406 108.011 204.118 108.793C203.968 109.205 203.809 109.621 203.649 110.033C203.49 110.444 203.325 110.856 203.156 111.262C202.991 111.658 202.821 112.054 202.652 112.445C202.61 112.538 202.569 112.631 202.523 112.723C202.343 113.13 202.158 113.526 201.967 113.922C201.962 113.927 201.962 113.937 201.957 113.942C201.808 114.261 201.648 114.58 201.489 114.894C201.489 114.904 201.485 114.913 201.479 114.92C201.324 115.228 201.165 115.537 201 115.841L200.738 116.34L200.707 116.396C200.378 117.008 200.038 117.615 199.678 118.217C199.601 118.351 199.524 118.485 199.447 118.613C199.37 118.747 199.287 118.881 199.205 119.009C199.154 119.102 199.097 119.195 199.035 119.287C198.927 119.462 198.819 119.642 198.706 119.817C198.685 119.853 198.66 119.889 198.639 119.925C198.444 120.228 198.248 120.527 198.053 120.83C197.811 121.196 197.564 121.556 197.312 121.916L191.725 130.856L191.484 130.656L191.417 130.594H191.412L191.19 130.409L190.583 129.894C190.398 130.074 190.218 130.254 190.033 130.429C189.961 130.501 189.884 130.568 189.812 130.64C189.755 130.692 189.704 130.743 189.647 130.794C179.989 140.226 167.142 145.688 153.648 146.098H153.633C143.419 146.379 133.307 143.992 124.296 139.174C124.096 139.071 123.9 138.968 123.705 138.85C122.532 138.212 121.385 137.538 120.258 136.818C120.253 136.813 120.248 136.813 120.243 136.808C118.936 135.882 117.66 134.894 116.415 133.845C109.737 128.215 104.453 121.116 100.979 113.102C97.5042 105.088 95.9334 96.3784 96.3894 87.6558C96.4048 87.3111 96.4254 86.9716 96.451 86.6269C96.5334 85.3821 96.6603 84.1423 96.8317 82.9077C96.878 82.5631 96.9295 82.2184 96.9809 81.8789H206.952C207.168 83.453 207.317 85.0357 207.4 86.6269C207.451 87.6199 207.477 88.6076 207.477 89.6004Z" fill="#F0F0F0"/>
<path d="M206.952 81.879C204.972 68.7129 198.333 56.6942 188.243 48.0078C178.153 39.3214 165.281 34.5439 151.966 34.5439C138.652 34.5439 125.78 39.3214 115.69 48.0078C105.599 56.6942 98.9607 68.7129 96.9808 81.879C96.9294 82.2186 96.8779 82.5632 96.8316 82.9079C96.6619 84.1425 96.535 85.3822 96.4509 86.6271H207.399C207.317 85.0375 207.168 83.4549 206.952 81.879Z" fill="#8C98E7"/>
<path d="M155.569 139.173H123.707V113.685C124.295 102.038 134.25 101.097 143.605 101.722C145.176 101.722 146.732 102.031 148.183 102.632C149.635 103.234 150.953 104.115 152.064 105.226C153.175 106.337 154.057 107.656 154.658 109.107C155.259 110.559 155.569 112.114 155.569 113.685V139.173Z" fill="#8C98E7"/>
<path d="M123.704 121.052V121.057C123.704 121.062 123.71 121.062 123.715 121.062L123.704 121.052ZM110.89 81.879C110.87 82.0076 110.844 82.1362 110.824 82.2648C110.844 82.1362 110.87 82.0076 110.896 81.879H110.89ZM110.253 86.6271C110.237 86.8225 110.222 87.018 110.211 87.2135C110.222 87.018 110.237 86.8225 110.258 86.6271C110.257 86.591 110.259 86.5549 110.263 86.519C110.258 86.555 110.258 86.591 110.253 86.6271ZM123.704 121.057C123.704 121.062 123.71 121.062 123.715 121.062L123.704 121.052V121.057ZM110.89 81.879C110.87 82.0076 110.844 82.1362 110.824 82.2648C110.844 82.1362 110.87 82.0076 110.896 81.879H110.89ZM110.211 87.2135C110.222 87.018 110.237 86.8225 110.258 86.6271C110.257 86.591 110.259 86.5549 110.263 86.519C110.258 86.555 110.258 86.591 110.253 86.6271C110.237 86.8225 110.222 87.018 110.211 87.2135ZM269.134 181.845C269.034 181.739 268.927 181.639 268.815 181.546L268.81 181.541L243.336 160.044L242.678 159.488L240.173 157.374L239.545 156.844L235.975 153.83L234.998 153.007L232.976 151.299L231.942 150.424L222.189 142.199L216.597 137.482L215.846 136.849L199.369 122.945C199.621 122.584 199.868 122.224 200.11 121.859C200.306 121.556 200.501 121.257 200.697 120.954C200.717 120.918 200.743 120.882 200.763 120.846C200.877 120.671 200.985 120.491 201.093 120.316C201.154 120.223 201.211 120.131 201.262 120.038C201.345 119.91 201.427 119.776 201.504 119.642C201.581 119.513 201.659 119.38 201.736 119.246C202.096 118.644 202.435 118.037 202.764 117.425L202.795 117.368L203.058 116.869C203.222 116.566 203.382 116.257 203.536 115.949C203.543 115.942 203.546 115.932 203.546 115.923C203.706 115.609 203.865 115.29 204.015 114.971C204.02 114.966 204.02 114.956 204.025 114.951C204.215 114.555 204.4 114.158 204.58 113.752C204.627 113.659 204.668 113.567 204.709 113.474C204.879 113.083 205.049 112.687 205.213 112.291C205.383 111.885 205.547 111.473 205.707 111.062C205.867 110.65 206.026 110.234 206.175 109.822C206.458 109.035 206.724 108.246 206.972 107.456C206.984 107.41 206.998 107.366 207.014 107.322C207.142 106.9 207.266 106.483 207.389 106.062C207.466 105.789 207.538 105.521 207.61 105.249C207.662 105.053 207.713 104.858 207.759 104.662C207.785 104.585 207.801 104.513 207.821 104.436C207.888 104.174 207.95 103.917 208.012 103.654C208.022 103.613 208.032 103.567 208.042 103.526C208.166 102.996 208.284 102.461 208.392 101.931C208.449 101.663 208.5 101.396 208.552 101.128C208.649 100.593 208.747 100.058 208.829 99.5234C208.871 99.2714 208.907 99.0193 208.943 98.7673C208.979 98.5409 209.009 98.3146 209.04 98.0933C209.082 97.8053 209.117 97.5223 209.148 97.2343C209.282 96.0975 209.38 94.9658 209.442 93.8288C209.462 93.4894 209.478 93.1498 209.493 92.8051C209.508 92.4091 209.519 92.0181 209.524 91.622C209.529 91.2928 209.534 90.9585 209.534 90.6292C209.534 89.6364 209.508 88.6487 209.457 87.6559C209.375 86.0664 209.225 84.4837 209.009 82.9079C207.166 69.4378 200.537 57.0809 190.334 48.0957C180.131 39.1106 167.035 34.0975 153.44 33.9726C139.845 33.8478 126.659 38.6195 116.292 47.4158C105.926 56.212 99.0709 68.4451 96.9807 81.8791C96.9294 82.2186 96.8779 82.5632 96.8316 82.9079C96.6619 84.1425 96.535 85.3822 96.4509 86.6271C96.4253 86.9718 96.4047 87.3112 96.3892 87.6559C95.9333 96.3785 97.5041 105.088 100.979 113.102C104.453 121.116 109.737 128.216 116.415 133.845C117.66 134.894 118.936 135.882 120.242 136.808C120.248 136.813 120.253 136.813 120.258 136.818C120.695 137.127 121.132 137.43 121.575 137.729C122.279 138.192 122.989 138.644 123.704 139.077C123.761 139.107 123.818 139.143 123.874 139.174C124.492 139.545 125.114 139.9 125.736 140.244H125.741C128.059 141.518 130.464 142.625 132.938 143.557C140.199 146.289 147.942 147.504 155.691 147.127H155.706C164.75 146.69 173.555 144.084 181.38 139.529C182.517 138.871 183.639 138.166 184.734 137.415C185.007 137.23 185.285 137.039 185.552 136.849C185.882 136.618 186.211 136.376 186.54 136.134C186.545 136.134 186.545 136.129 186.55 136.129C186.575 136.108 186.6 136.09 186.627 136.072C186.849 135.903 187.075 135.733 187.291 135.568C187.348 135.527 187.404 135.486 187.461 135.44C187.476 135.429 187.489 135.417 187.502 135.404C187.63 135.311 187.754 135.208 187.883 135.11C188.011 135.013 188.135 134.91 188.263 134.807C188.285 134.793 188.306 134.778 188.325 134.761C188.469 134.642 188.613 134.529 188.757 134.411C188.906 134.293 189.05 134.169 189.189 134.051C189.333 133.932 189.472 133.814 189.616 133.691C189.74 133.588 189.868 133.48 189.992 133.367C190.033 133.336 190.069 133.3 190.11 133.264C190.126 133.248 190.143 133.235 190.161 133.222C190.331 133.078 190.496 132.929 190.66 132.78C190.702 132.744 190.738 132.708 190.779 132.672C191.031 132.446 191.283 132.219 191.53 131.983C191.586 131.931 191.648 131.875 191.705 131.823C191.761 131.772 191.813 131.72 191.869 131.669C191.941 131.597 192.018 131.53 192.09 131.458C192.276 131.283 192.456 131.103 192.641 130.923L193.248 131.438L193.469 131.623H193.474L193.541 131.684L193.783 131.885L197.373 134.92L197.451 134.987L197.512 135.033L197.919 135.378L198.732 136.067L199.544 136.751L199.663 136.849L203.444 140.039L203.968 140.481L207.615 143.557L226.494 159.488L227.153 160.044L252.992 181.845L259.617 187.436L262.081 189.515C262.604 189.957 263.209 190.292 263.862 190.501C264.515 190.709 265.202 190.787 265.885 190.73C266.568 190.673 267.232 190.481 267.841 190.167C268.45 189.852 268.99 189.421 269.432 188.897C269.802 188.463 270.096 187.969 270.302 187.436C270.675 186.492 270.764 185.459 270.556 184.466C270.349 183.472 269.854 182.56 269.134 181.845ZM120.124 62.5989C125.285 56.4832 132.07 51.9524 139.697 49.5297C147.324 47.107 155.48 46.8914 163.224 48.9076C170.968 50.9239 177.983 55.0898 183.46 60.9242C188.937 66.7585 192.651 74.0232 194.174 81.879C194.241 82.2237 194.303 82.5632 194.359 82.9079C194.57 84.1373 194.724 85.3822 194.817 86.6271C194.843 86.9717 194.868 87.3112 194.884 87.6559C194.93 88.4275 194.951 89.2043 194.951 89.9759C194.954 94.6565 194.178 99.305 192.656 103.731V103.736C190.956 108.699 188.344 113.301 184.956 117.307C184.884 117.389 184.812 117.476 184.734 117.559C184.055 118.361 183.34 119.133 182.605 119.868C182.6 119.874 182.594 119.884 182.589 119.889C182.337 120.141 182.08 120.398 181.823 120.635C181.298 121.144 180.763 121.628 180.218 122.091C179.4 122.806 178.561 123.476 177.702 124.102C177.414 124.313 177.126 124.519 176.833 124.725C176.545 124.93 176.252 125.126 175.958 125.321C175.372 125.712 174.775 126.088 174.173 126.443C173.875 126.623 173.566 126.798 173.263 126.967C172.959 127.142 172.651 127.307 172.342 127.466C172.034 127.631 171.725 127.79 171.411 127.945C170.789 128.258 170.161 128.552 169.523 128.824C169.204 128.968 168.885 129.102 168.566 129.226C168.366 129.308 168.17 129.39 167.97 129.462C167.891 129.498 167.81 129.529 167.728 129.555C167.62 129.601 167.512 129.642 167.404 129.678C167.369 129.694 167.333 129.708 167.296 129.719C167.075 129.807 166.858 129.884 166.632 129.961C166.308 130.08 165.984 130.188 165.655 130.29C165.326 130.398 165.001 130.501 164.672 130.594C164.343 130.697 164.009 130.789 163.679 130.877C163.345 130.969 163.016 131.057 162.681 131.134C162.327 131.227 161.972 131.309 161.611 131.386C161.298 131.458 160.989 131.52 160.675 131.577C160.382 131.638 160.084 131.69 159.79 131.741C159.379 131.813 158.967 131.88 158.551 131.937C158.324 131.973 158.103 132.003 157.877 132.024C157.779 132.039 157.687 132.05 157.594 132.06C157.306 132.101 157.018 132.132 156.735 132.158C156.658 132.163 156.586 132.173 156.514 132.178C156.2 132.209 155.881 132.235 155.567 132.261C154.893 132.307 154.225 132.338 153.551 132.353C153.211 132.358 152.866 132.364 152.527 132.364C152.187 132.364 151.848 132.358 151.508 132.348C151.508 132.348 151.508 132.353 151.503 132.348C151.498 132.353 151.498 132.353 151.493 132.348C151.492 132.349 151.492 132.349 151.491 132.35C151.49 132.35 151.489 132.35 151.488 132.35C151.487 132.35 151.486 132.35 151.485 132.35C151.484 132.349 151.483 132.349 151.483 132.348C151.466 132.353 151.448 132.353 151.431 132.348C151.19 132.348 150.948 132.338 150.711 132.322C150.536 132.317 150.356 132.312 150.176 132.297C149.934 132.286 149.693 132.271 149.451 132.25C149.374 132.25 149.296 132.24 149.219 132.235C149.183 132.234 149.147 132.231 149.111 132.225C148.864 132.204 148.612 132.183 148.365 132.158C148.242 132.147 148.113 132.137 147.99 132.122C147.614 132.081 147.239 132.034 146.868 131.983C146.447 131.931 146.025 131.87 145.608 131.793C145.413 131.767 145.222 131.731 145.032 131.695C144.78 131.654 144.528 131.607 144.276 131.556C144.013 131.504 143.751 131.453 143.489 131.391C143.278 131.345 143.062 131.299 142.851 131.247C142.748 131.227 142.645 131.201 142.547 131.175C142.007 131.047 141.472 130.908 140.942 130.753C140.608 130.661 140.274 130.563 139.944 130.46C139.492 130.321 139.044 130.172 138.597 130.013C138.422 129.956 138.252 129.894 138.077 129.827C137.902 129.771 137.732 129.704 137.558 129.637C137.398 129.581 137.239 129.519 137.084 129.457C136.827 129.359 136.575 129.257 136.323 129.154C135.803 128.943 135.294 128.721 134.785 128.485C134.497 128.346 134.209 128.212 133.926 128.073C132.81 127.533 131.71 126.933 130.628 126.273C130.361 126.113 130.093 125.944 129.826 125.774C129.492 125.568 129.168 125.352 128.843 125.136C128.663 125.013 128.488 124.894 128.313 124.771C127.989 124.544 127.67 124.313 127.357 124.082C127.192 123.963 127.027 123.84 126.868 123.716C126.297 123.284 125.736 122.831 125.186 122.368C124.924 122.147 124.661 121.921 124.404 121.69C124.296 121.597 124.188 121.499 124.08 121.401C123.957 121.288 123.833 121.18 123.715 121.062L123.704 121.052C123.524 120.892 123.344 120.722 123.169 120.553C122.897 120.295 122.629 120.033 122.372 119.766C122.105 119.503 121.847 119.231 121.595 118.963C121.338 118.696 121.091 118.423 120.849 118.145C120.603 117.873 120.361 117.595 120.124 117.312C119.893 117.044 119.666 116.767 119.45 116.494C118.925 115.846 118.425 115.186 117.948 114.513C117.727 114.205 117.516 113.896 117.31 113.582C117.089 113.263 116.878 112.939 116.678 112.615C116.467 112.291 116.266 111.962 116.071 111.628C116.066 111.616 116.059 111.606 116.05 111.597C115.664 110.943 115.294 110.285 114.949 109.616C114.594 108.937 114.26 108.251 113.946 107.559C113.787 107.214 113.632 106.864 113.488 106.514C113.19 105.81 112.912 105.105 112.655 104.39C112.526 104.045 112.408 103.7 112.29 103.351C112.286 103.328 112.279 103.305 112.269 103.284C112.032 102.574 111.816 101.859 111.626 101.139C111.621 101.128 111.621 101.118 111.616 101.108C111.518 100.753 111.425 100.398 111.343 100.038C111.261 99.7241 111.189 99.4103 111.122 99.0913C111.045 98.7364 110.968 98.3815 110.901 98.0214C110.865 97.8362 110.829 97.651 110.798 97.4658C110.767 97.3115 110.741 97.152 110.715 96.9977C110.69 96.8434 110.664 96.6839 110.638 96.5244C110.587 96.2106 110.541 95.8969 110.499 95.5831C110.448 95.2127 110.407 94.8423 110.366 94.4668C110.319 94.0192 110.278 93.5717 110.242 93.119C110.217 92.8155 110.201 92.5069 110.186 92.1982C110.17 91.9153 110.155 91.6324 110.15 91.3494C110.145 91.3344 110.145 91.3182 110.15 91.3032C110.149 91.3025 110.148 91.3017 110.148 91.3008C110.148 91.2999 110.147 91.299 110.147 91.298C110.147 91.2971 110.148 91.2961 110.148 91.2952C110.148 91.2943 110.149 91.2935 110.15 91.2929C110.145 91.2877 110.145 91.2877 110.15 91.2826C110.149 91.2819 110.148 91.2811 110.148 91.2802C110.148 91.2794 110.147 91.2784 110.147 91.2774C110.147 91.2765 110.148 91.2755 110.148 91.2746C110.148 91.2738 110.149 91.273 110.15 91.2723C110.145 91.1591 110.139 91.046 110.139 90.9328C110.129 90.5985 110.124 90.2641 110.124 89.9297C110.124 89.6262 110.129 89.3278 110.134 89.0243C110.145 88.6025 110.16 88.1807 110.18 87.7589C110.18 87.6663 110.191 87.5788 110.196 87.4862C110.201 87.3936 110.206 87.3061 110.211 87.2135C110.222 87.018 110.237 86.8225 110.258 86.6271C110.257 86.591 110.259 86.5549 110.263 86.519C110.278 86.2978 110.299 86.0767 110.319 85.8555C110.361 85.4132 110.412 84.9656 110.469 84.5232C110.499 84.302 110.525 84.0808 110.561 83.8596C110.582 83.7053 110.607 83.5458 110.633 83.3864C110.654 83.2269 110.68 83.0674 110.71 82.908C110.746 82.697 110.782 82.4809 110.824 82.2648C110.844 82.1362 110.87 82.0076 110.896 81.879C110.993 81.3646 111.101 80.8503 111.22 80.3359C111.338 79.8163 111.472 79.3019 111.616 78.7875C111.755 78.268 111.909 77.7484 112.074 77.2288C112.151 76.9665 112.233 76.7093 112.326 76.4521C112.495 75.9325 112.675 75.4181 112.876 74.9089C112.969 74.6568 113.066 74.3996 113.174 74.1475C113.38 73.6382 113.596 73.129 113.817 72.63C113.931 72.3779 114.044 72.1259 114.167 71.8738C114.399 71.3748 114.64 70.8759 114.903 70.3872C115.155 69.8882 115.428 69.3995 115.705 68.916C115.983 68.4324 116.271 67.9488 116.575 67.4704C116.714 67.2338 116.868 66.9921 117.027 66.7606C117.336 66.2873 117.66 65.814 117.989 65.3511C118.653 64.4147 119.368 63.4939 120.124 62.5989ZM110.253 86.6271C110.237 86.8225 110.222 87.018 110.211 87.2135C110.222 87.018 110.237 86.8225 110.258 86.6271C110.257 86.591 110.259 86.5549 110.263 86.519C110.258 86.555 110.258 86.591 110.253 86.6271ZM110.89 81.879C110.87 82.0076 110.844 82.1362 110.824 82.2648C110.844 82.1362 110.87 82.0076 110.896 81.879H110.89ZM123.704 121.052V121.057C123.704 121.062 123.71 121.062 123.715 121.062L123.704 121.052Z" fill="#3F3D56"/>
<path opacity="0.3" d="M125.187 122.368C117.05 115.502 111.793 105.827 110.46 95.2638C109.127 84.701 111.814 74.0231 117.989 65.3503C117.178 66.167 116.394 67.0224 115.637 67.9163C112.046 72.1732 109.327 77.0958 107.638 82.4032C105.948 87.7106 105.321 93.2988 105.791 98.8488C106.261 104.399 107.82 109.802 110.378 114.749C112.936 119.697 116.444 124.092 120.701 127.684C129.298 134.938 140.425 138.48 151.633 137.53C162.842 136.581 173.214 131.218 180.469 122.62C181.224 121.725 181.935 120.809 182.602 119.87C175.092 127.417 165.018 131.862 154.382 132.325C143.745 132.788 133.324 129.233 125.187 122.368Z" fill="black"/>
</svg>